<svg width="292" height="292" viewBox="0 0 292 292" fill="none" xmlns="http://www.w3.org/2000/svg">
<g filter="url(#filter0_d_1_143)">
<path d="M144 269.053C214.692 269.053 272 212.16 272 141.98C272 71.8 214.692 14.9077 144 14.9077C73.3076 14.9077 16 71.8 16 141.98C16 212.16 73.3076 269.053 144 269.053Z" stroke="white" stroke-width="16" stroke-linecap="round" stroke-linejoin="round"/>
<path d="M220.8 125.043C219.036 120.086 215.768 115.795 211.445 112.76C207.122 109.724 201.957 108.094 196.662 108.094C191.367 108.094 186.202 109.724 181.879 112.76C177.622 115.748 174.389 119.955 172.606 124.815" stroke="white" stroke-width="16" stroke-linecap="round" stroke-linejoin="round"/>
<path d="M67.202 125.043C68.9658 120.086 72.2343 115.795 76.5573 112.76C80.8803 109.724 86.045 108.094 91.34 108.094C96.635 108.094 101.8 109.724 106.123 112.76C110.3 115.693 113.493 119.798 115.294 124.544" stroke="white" stroke-width="16" stroke-linecap="round" stroke-linejoin="round"/>
<path d="M75.1444 175.866C81.4997 188.599 91.3118 199.315 103.474 206.809C115.637 214.301 129.666 218.271 143.98 218.271C158.294 218.271 172.323 214.301 184.486 206.809C196.568 199.365 206.33 188.742 212.689 176.119" stroke="white" stroke-width="16" stroke-linecap="round" stroke-linejoin="round"/>
</g>
<defs>
<filter id="filter0_d_1_143" x="0" y="0.9077" width="292" height="290.145" filterUnits="userSpaceOnUse" color-interpolation-filters="sRGB">
<feFlood flood-opacity="0" result="BackgroundImageFix"/>
<feColorMatrix in="SourceAlpha" type="matrix" values="0 0 0 0 0 0 0 0 0 0 0 0 0 0 0 0 0 0 127 0" result="hardAlpha"/>
<feOffset dx="2" dy="4"/>
<feGaussianBlur stdDeviation="5"/>
<feComposite in2="hardAlpha" operator="out"/>
<feColorMatrix type="matrix" values="0 0 0 0 0 0 0 0 0 0 0 0 0 0 0 0 0 0 0.25 0"/>
<feBlend mode="normal" in2="BackgroundImageFix" result="effect1_dropShadow_1_143"/>
<feBlend mode="normal" in="SourceGraphic" in2="effect1_dropShadow_1_143" result="shape"/>
</filter>
</defs>
</svg>
