<svg width="223" height="174" viewBox="0 0 223 174" fill="none" xmlns="http://www.w3.org/2000/svg">
<path d="M213.914 32.8391C211.586 25.8766 207.247 19.8573 201.496 15.6098C195.743 11.3624 188.862 9.09595 181.798 9.12292C174.733 9.14988 167.835 11.4689 162.052 15.7604C156.358 19.9859 152.023 25.9197 149.62 32.7636" stroke="black" stroke-width="18" stroke-linecap="round" stroke-linejoin="round"/>
<path d="M9 33.6212C11.3783 26.6408 15.7606 20.5881 21.5433 16.2967C27.326 12.0052 34.2245 9.68617 41.2885 9.65921C48.3525 9.63225 55.2344 11.8987 60.9863 16.1461C66.5441 20.2504 70.7824 26.0089 73.1622 32.6741" stroke="black" stroke-width="18" stroke-linecap="round" stroke-linejoin="round"/>
<path d="M19.337 105.067C27.7507 122.944 40.7864 137.967 56.9743 148.445C73.162 158.921 91.8583 164.434 110.953 164.361C130.05 164.288 148.786 158.632 165.051 148.032C181.207 137.501 194.285 122.509 202.832 104.722" stroke="black" stroke-width="18" stroke-linecap="round" stroke-linejoin="round"/>
</svg>
